<svg fill="none" height="512" viewBox="0 0 24 24" width="512" xmlns="http://www.w3.org/2000/svg"><path clip-rule="evenodd" d="m1.25 5c0-1.51878 1.23122-2.75 2.75-2.75h16c1.5188 0 2.75 1.23122 2.75 2.75v10c0 1.5188-1.2312 2.75-2.75 2.75h-4.7865l1.25 2.5h.5365c.4142 0 .75.3358.75.75s-.3358.75-.75.75h-.9838c-.0042.0001-.0084.0001-.0126.0002-.0062 0-.0125-.0001-.0187-.0002h-7.96982c-.01042.0002-.02087.0002-.03132 0h-.98376c-.41421 0-.75-.3358-.75-.75s.33579-.75.75-.75h.53647l1.25-2.5h-4.78647c-1.51878 0-2.75-1.2312-2.75-2.75zm20 8.25h-18.5v-8.25c0-.69036.55964-1.25 1.25-1.25h16c.6904 0 1.25.55964 1.25 1.25zm-10.7865 4.5-1.24997 2.5h5.57297l-1.25-2.5z" fill="rgb(255,255,255)" fill-rule="evenodd"/></svg>