<svg width="213" height="191" viewBox="0 0 213 191" fill="none" xmlns="http://www.w3.org/2000/svg">
<path fill-rule="evenodd" clip-rule="evenodd" d="M107.358 182C105.861 182.011 104.389 181.628 103.089 180.89C91.9469 174.445 9.43515 122.709 6.32033 121.13C3.9482 120.023 2.32824 117.756 2.05112 115.154V42.5884C1.98936 39.879 3.32745 37.3295 5.59349 35.8441L6.19207 35.5021C14.1731 30.5503 40.8953 14.2447 45.1201 11.8963C46.0908 11.3215 47.1946 11.0127 48.322 11C49.3799 11.0127 50.4187 11.2755 51.3529 11.768C51.3529 11.768 88.745 36.1418 94.4663 38.3192C98.479 40.1624 102.856 41.0824 107.272 41.008C112.276 41.1125 117.22 39.9059 121.614 37.5084C127.206 34.563 162.934 11.8963 163.318 11.8963C164.219 11.3531 165.254 11.0713 166.307 11.0855C167.436 11.0918 168.541 11.4006 169.509 11.9818C174.373 14.6722 207.499 34.9462 208.907 35.8441C211.236 37.2487 212.649 39.7824 212.62 42.5029V115.068C212.359 117.677 210.734 119.95 208.353 121.045C205.236 122.752 122.979 174.487 111.626 180.804C110.333 181.572 108.861 181.984 107.358 182Z" fill="url(#paint0_linear)"/>
<path fill-rule="evenodd" clip-rule="evenodd" d="M106.93 181H107.358C108.853 181.011 110.324 180.628 111.625 179.89C122.766 173.445 205.236 121.709 208.353 120.13C210.734 119.038 212.359 116.762 212.62 114.154V41.5884C212.635 40.3596 212.357 39.145 211.809 38.046L106.93 95.6282V181V181Z" fill="white"/>
<path fill-rule="evenodd" clip-rule="evenodd" d="M106.566 181.97H106.143C104.664 181.982 103.207 181.602 101.92 180.873C90.897 174.495 9.30685 123.312 6.22371 121.749C3.86741 120.667 2.26012 118.417 2.00042 115.836V44.0429C1.98775 42.8283 2.26328 41.6264 2.80327 40.5385L106.566 97.5078V181.97Z" fill="#F0F0F0"/>
<defs>
<linearGradient id="paint0_linear" x1="107.335" y1="11" x2="107.335" y2="182" gradientUnits="userSpaceOnUse">
<stop stop-color="white"/>
<stop offset="1" stop-color="white" stop-opacity="0"/>
</linearGradient>
</defs>
</svg>
