<svg width="244" height="219" viewBox="0 0 244 219" fill="none" xmlns="http://www.w3.org/2000/svg">
<path fill-rule="evenodd" clip-rule="evenodd" d="M122.983 208.488C121.268 208.501 119.581 208.062 118.092 207.216C105.329 199.833 10.8083 140.568 7.2402 138.76C4.52282 137.492 2.66709 134.894 2.34964 131.913V48.7867C2.27889 45.6829 3.81173 42.7624 6.40757 41.0609L7.09326 40.669C16.2358 34.9966 46.8472 16.3178 51.6869 13.6277C52.7989 12.9692 54.0633 12.6155 55.3548 12.601C56.5666 12.6155 57.7566 12.9166 58.8268 13.4807C58.8268 13.4807 101.661 41.4019 108.215 43.8962C112.812 46.0077 117.826 47.0616 122.885 46.9763C128.617 47.0961 134.28 45.7138 139.314 42.9674C145.719 39.5933 186.647 13.6277 187.088 13.6277C188.12 13.0055 189.305 12.6826 190.511 12.6989C191.804 12.7062 193.07 13.0599 194.179 13.7256C199.751 16.8076 237.699 40.0323 239.311 41.0609C241.98 42.6699 243.598 45.5723 243.565 48.6888V131.815C243.266 134.803 241.405 137.408 238.676 138.662C235.106 140.617 140.878 199.882 127.871 207.118C126.391 207.998 124.704 208.47 122.983 208.488Z" fill="url(#paint0_linear)"/>
<path fill-rule="evenodd" clip-rule="evenodd" d="M122.493 207.342H122.983C124.695 207.355 126.38 206.916 127.871 206.071C140.633 198.688 235.106 139.422 238.676 137.614C241.405 136.362 243.266 133.756 243.565 130.768V47.6412C243.581 46.2335 243.264 44.8421 242.636 43.5832L122.493 109.546V207.342V207.342Z" fill="white"/>
<path fill-rule="evenodd" clip-rule="evenodd" d="M122.076 208.454H121.591C119.897 208.467 118.228 208.032 116.753 207.197C104.126 199.891 10.6614 141.258 7.12951 139.468C4.43027 138.229 2.58906 135.651 2.29156 132.694V50.4529C2.27705 49.0615 2.59268 47.6847 3.21126 46.4385L122.076 111.699V208.454Z" fill="#F0F0F0"/>
<defs>
<linearGradient id="paint0_linear" x1="122.956" y1="12.601" x2="122.956" y2="208.488" gradientUnits="userSpaceOnUse">
<stop stop-color="white"/>
<stop offset="1" stop-color="white" stop-opacity="0"/>
</linearGradient>
</defs>
</svg>
