<svg width="228" height="228" viewBox="0 0 228 228" fill="none" xmlns="http://www.w3.org/2000/svg">
<g clip-path="url(#clip0)">
<path d="M202.116 214.4H25.8841C11.6125 214.4 0 202.787 0 188.516V39.1014C0 24.8299 11.6125 13.2174 25.8841 13.2174H202.116C216.387 13.2174 228 24.8299 228 39.1014V188.516C228 202.787 216.387 214.4 202.116 214.4ZM25.8841 20.9275C15.8635 20.9275 7.71014 29.0808 7.71014 39.1014V188.516C7.71014 198.536 15.8635 206.69 25.8841 206.69H202.116C212.137 206.69 220.29 198.536 220.29 188.516V39.1014C220.29 29.0808 212.137 20.9275 202.116 20.9275H25.8841Z" fill="white"/>
<path d="M193.205 155.543H132.628C130.498 155.543 128.773 153.818 128.773 151.688C128.773 149.56 130.498 147.833 132.628 147.833H193.205C195.333 147.833 197.06 149.56 197.06 151.688C197.06 153.818 195.335 155.543 193.205 155.543Z" fill="white"/>
<path d="M193.205 183.415H132.628C130.498 183.415 128.773 181.69 128.773 179.56C128.773 177.432 130.498 175.705 132.628 175.705H193.205C195.333 175.705 197.06 177.432 197.06 179.56C197.06 181.69 195.335 183.415 193.205 183.415Z" fill="white"/>
<path d="M193.205 99.7995H132.628C130.498 99.7995 128.773 98.0742 128.773 95.9444C128.773 93.8168 130.498 92.0893 132.628 92.0893H193.205C195.333 92.0893 197.06 93.8168 197.06 95.9444C197.06 98.0742 195.335 99.7995 193.205 99.7995Z" fill="white"/>
<path d="M193.205 127.671H132.628C130.498 127.671 128.773 125.946 128.773 123.816C128.773 121.689 130.498 119.961 132.628 119.961H193.205C195.333 119.961 197.06 121.689 197.06 123.816C197.06 125.946 195.335 127.671 193.205 127.671Z" fill="white"/>
<path d="M224.145 64.837H3.85507C1.72532 64.837 0 63.1117 0 60.982C0 58.8522 1.72532 57.1269 3.85507 57.1269H224.145C226.275 57.1269 228 58.8522 228 60.982C228 63.1117 226.275 64.837 224.145 64.837Z" fill="white"/>
<path d="M55.5759 51.0969C48.9607 51.0969 43.5782 45.7166 43.5782 39.1014C43.5782 32.4863 48.9607 27.106 55.5759 27.106C62.191 27.106 67.5713 32.4863 67.5713 39.1014C67.5713 45.7166 62.191 51.0969 55.5759 51.0969ZM55.5759 34.8161C53.2116 34.8161 51.2884 36.7393 51.2884 39.1014C51.2884 41.4635 53.2116 43.3868 55.5759 43.3868C57.938 43.3868 59.8612 41.4635 59.8612 39.1014C59.8612 36.7393 57.938 34.8161 55.5759 34.8161Z" fill="white"/>
<path d="M27.7987 51.0969C21.1857 51.0969 15.8032 45.7166 15.8032 39.1014C15.8032 32.4863 21.1857 27.106 27.7987 27.106C34.4138 27.106 39.7963 32.4863 39.7963 39.1014C39.7963 45.7166 34.4138 51.0969 27.7987 51.0969ZM27.7987 34.8161C25.4366 34.8161 23.5134 36.7393 23.5134 39.1014C23.5134 41.4635 25.4366 43.3868 27.7987 43.3868C30.1629 43.3868 32.0862 41.4635 32.0862 39.1014C32.0862 36.7393 30.1629 34.8161 27.7987 34.8161Z" fill="white"/>
<path d="M83.3509 51.0969C76.7357 51.0969 71.3554 45.7166 71.3554 39.1014C71.3554 32.4863 76.7357 27.106 83.3509 27.106C89.966 27.106 95.3485 32.4863 95.3485 39.1014C95.3485 45.7166 89.966 51.0969 83.3509 51.0969ZM83.3509 34.8161C80.9866 34.8161 79.0656 36.7393 79.0656 39.1014C79.0656 41.4635 80.9888 43.3868 83.3509 43.3868C85.7151 43.3868 87.6384 41.4635 87.6384 39.1014C87.6384 36.7393 85.7151 34.8161 83.3509 34.8161Z" fill="white"/>
<path d="M103.536 183.415H33.5942C31.4645 183.415 29.7391 181.69 29.7391 179.56V95.9444C29.7391 93.8168 31.4645 92.0893 33.5942 92.0893H103.536C105.666 92.0893 107.391 93.8168 107.391 95.9444V179.56C107.391 181.69 105.666 183.415 103.536 183.415ZM37.4493 175.705H99.6812V99.7995H37.4493V175.705Z" fill="white"/>
</g>
<defs>
<clipPath id="clip0">
<rect width="228" height="228" fill="white"/>
</clipPath>
</defs>
</svg>
