<svg width="470" height="470" viewBox="0 0 470 470" fill="none" xmlns="http://www.w3.org/2000/svg">
<g clip-path="url(#clip0)">
<path d="M437.332 192H277.332V32C277.332 14.3359 262.996 0 245.332 0H224C206.336 0 192 14.3359 192 32V192H32C14.3359 192 0 206.336 0 224V245.332C0 262.996 14.3359 277.332 32 277.332H192V437.332C192 454.996 206.336 469.332 224 469.332H245.332C262.996 469.332 277.332 454.996 277.332 437.332V277.332H437.332C454.996 277.332 469.332 262.996 469.332 245.332V224C469.332 206.336 454.996 192 437.332 192V192Z" fill="white"/>
</g>
<defs>
<clipPath id="clip0">
<rect width="469.333" height="469.333" fill="white"/>
</clipPath>
</defs>
</svg>
