<svg width="174" height="198" viewBox="0 0 174 198" fill="none" xmlns="http://www.w3.org/2000/svg">
<path fill-rule="evenodd" clip-rule="evenodd" d="M168.1 55.3343H126.106C121.387 13.2596 101.195 -0.737939 85.0933 0.0297025C66.9839 0.93326 48.6811 20.2009 47.9517 55.3343H5.89801C2.63602 55.3343 0 57.9684 0 61.2324L7.80467 179.748C7.80467 183.012 16.555 197.972 30.317 197.874H144.349C164.325 194.768 166.842 178.036 166.842 174.774L174 61.2324C174 57.9684 171.364 55.3343 168.1 55.3343ZM85.5834 9.83867C97.2818 9.28926 112.085 20.8881 116.195 55.3343H57.7837C58.4518 26.6483 72.4301 10.5068 85.5834 9.83867ZM97.4598 172.787C83.8337 175.402 66.3158 170.862 56.7806 160.618C52.4753 155.997 59.4147 149.017 63.741 153.677C70.1502 160.578 81.5729 163.803 90.8918 163.587C102.768 163.331 113.345 152.519 106.601 140.447C97.2627 123.735 74.2392 128.413 62.4029 115.281C52.8294 104.684 57.3702 88.0117 68.6168 80.6187C80.3343 72.9116 100.565 73.2064 110.2 84.2559C114.348 88.9938 107.407 95.9734 103.239 91.1953C95.4536 82.2688 77.0704 83.4882 70.0525 92.6693C60.0655 105.784 75.0068 112.842 85.4456 116.009C99.7991 120.352 115.724 128.295 118.339 144.752C120.424 158.003 110.159 170.329 97.4598 172.787Z" fill="#F4A061"/>
</svg>
