<svg width="512" height="445" viewBox="0 0 512 445" fill="none" xmlns="http://www.w3.org/2000/svg">
<path d="M435.06 0H76.9399C56.541 0.022217 36.9839 8.13549 22.5597 22.5597C8.13549 36.9839 0.022217 56.541 0 76.9399V264.393C0.022217 284.792 8.13549 304.349 22.5597 318.774C36.9839 333.198 56.541 341.311 76.9399 341.333H105.276C109.003 377.705 104.929 412.526 94.6445 429.934C93.6804 431.556 93.2061 433.423 93.2787 435.308C93.3513 437.194 93.9677 439.018 95.0536 440.561C96.1395 442.104 97.6485 443.3 99.3988 444.005C101.149 444.71 103.066 444.893 104.918 444.534C132.479 439.215 158.225 426.943 179.713 408.882C201.2 390.821 217.718 367.569 227.697 341.333H435.06C455.459 341.311 475.016 333.198 489.44 318.774C503.864 304.349 511.978 284.792 512 264.393V76.9399C511.978 56.541 503.864 36.9839 489.44 22.5597C475.016 8.13549 455.459 0.022217 435.06 0V0ZM492.415 264.393C492.399 279.6 486.351 294.179 475.598 304.932C464.846 315.684 450.267 321.732 435.06 321.749H220.692C218.607 321.749 216.578 322.415 214.898 323.649C213.219 324.883 211.977 326.62 211.352 328.609C204.111 349.917 192.077 369.279 176.178 385.206C160.278 401.133 140.936 413.2 119.64 420.478C127.715 392.936 127.273 356.744 123.68 330.226C123.361 327.878 122.201 325.725 120.416 324.166C118.631 322.608 116.342 321.749 113.972 321.749H76.9399C61.7333 321.732 47.1543 315.684 36.4016 304.932C25.649 294.179 19.601 279.6 19.5847 264.393V76.9399C19.601 61.7333 25.649 47.1543 36.4016 36.4016C47.1543 25.649 61.7333 19.601 76.9399 19.5847H435.06C450.267 19.601 464.846 25.649 475.598 36.4016C486.351 47.1543 492.399 61.7333 492.415 76.9399V264.393Z" fill="white"/>
<path d="M381.902 144.087C376.645 144.087 371.506 145.646 367.135 148.567C362.764 151.487 359.357 155.638 357.346 160.495C355.334 165.352 354.808 170.696 355.833 175.852C356.859 181.008 359.39 185.744 363.107 189.461C366.824 193.178 371.56 195.71 376.716 196.735C381.872 197.761 387.216 197.234 392.073 195.223C396.93 193.211 401.081 189.804 404.001 185.433C406.922 181.062 408.481 175.924 408.481 170.667C408.472 163.62 405.669 156.865 400.686 151.882C395.703 146.899 388.948 144.096 381.902 144.087V144.087ZM381.902 177.661C380.518 177.661 379.166 177.251 378.016 176.482C376.865 175.714 375.969 174.621 375.44 173.343C374.91 172.065 374.772 170.659 375.041 169.302C375.311 167.945 375.978 166.699 376.956 165.721C377.934 164.743 379.18 164.076 380.537 163.806C381.894 163.537 383.3 163.675 384.578 164.205C385.856 164.734 386.949 165.63 387.717 166.781C388.486 167.931 388.896 169.283 388.896 170.667C388.893 172.521 388.155 174.298 386.844 175.609C385.533 176.92 383.756 177.658 381.902 177.661Z" fill="white"/>
<path d="M297.967 144.087C292.71 144.087 287.571 145.646 283.201 148.567C278.83 151.487 275.423 155.638 273.411 160.495C271.399 165.352 270.873 170.696 271.899 175.852C272.924 181.008 275.456 185.744 279.173 189.461C282.89 193.178 287.626 195.71 292.782 196.735C297.938 197.761 303.282 197.234 308.139 195.223C312.995 193.211 317.146 189.804 320.067 185.433C322.988 181.062 324.546 175.924 324.546 170.667C324.538 163.62 321.734 156.865 316.752 151.882C311.769 146.899 305.014 144.096 297.967 144.087ZM297.967 177.661C296.584 177.661 295.231 177.251 294.081 176.482C292.931 175.714 292.034 174.621 291.505 173.343C290.976 172.065 290.837 170.659 291.107 169.302C291.377 167.945 292.043 166.699 293.021 165.721C294 164.743 295.246 164.076 296.603 163.806C297.959 163.537 299.366 163.675 300.644 164.205C301.922 164.734 303.014 165.63 303.783 166.781C304.552 167.931 304.962 169.283 304.962 170.667C304.959 172.521 304.221 174.298 302.91 175.609C301.599 176.92 299.821 177.658 297.967 177.661V177.661Z" fill="white"/>
<path d="M214.033 144.087C208.776 144.087 203.637 145.646 199.266 148.567C194.895 151.487 191.489 155.638 189.477 160.495C187.465 165.352 186.939 170.696 187.964 175.852C188.99 181.008 191.521 185.744 195.238 189.461C198.956 193.178 203.692 195.71 208.847 196.735C214.003 197.761 219.348 197.234 224.204 195.223C229.061 193.211 233.212 189.804 236.133 185.433C239.053 181.062 240.612 175.924 240.612 170.667C240.603 163.62 237.8 156.865 232.817 151.882C227.835 146.899 221.079 144.096 214.033 144.087ZM214.033 177.661C212.649 177.661 211.297 177.251 210.147 176.482C208.997 175.714 208.1 174.621 207.571 173.343C207.041 172.065 206.903 170.659 207.173 169.302C207.443 167.945 208.109 166.699 209.087 165.721C210.065 164.743 211.311 164.076 212.668 163.806C214.025 163.537 215.431 163.675 216.709 164.205C217.988 164.734 219.08 165.63 219.849 166.781C220.617 167.931 221.027 169.283 221.027 170.667C221.024 172.521 220.287 174.298 218.975 175.609C217.664 176.92 215.887 177.658 214.033 177.661V177.661Z" fill="white"/>
<path d="M130.098 144.087C124.842 144.087 119.703 145.646 115.332 148.567C110.961 151.487 107.554 155.638 105.542 160.495C103.531 165.352 103.004 170.696 104.03 175.852C105.055 181.008 107.587 185.744 111.304 189.461C115.021 193.178 119.757 195.71 124.913 196.735C130.069 197.761 135.413 197.234 140.27 195.223C145.127 193.211 149.278 189.804 152.198 185.433C155.119 181.062 156.678 175.924 156.678 170.667C156.669 163.62 153.866 156.865 148.883 151.882C143.9 146.899 137.145 144.096 130.098 144.087ZM130.098 177.661C128.715 177.661 127.363 177.251 126.212 176.482C125.062 175.714 124.166 174.621 123.636 173.343C123.107 172.065 122.968 170.659 123.238 169.302C123.508 167.945 124.174 166.699 125.152 165.721C126.131 164.743 127.377 164.076 128.734 163.806C130.091 163.537 131.497 163.675 132.775 164.205C134.053 164.734 135.146 165.63 135.914 166.781C136.683 167.931 137.093 169.283 137.093 170.667C137.09 172.521 136.352 174.298 135.041 175.609C133.73 176.92 131.953 177.658 130.098 177.661V177.661Z" fill="white"/>
</svg>
