<svg width="176" height="198" viewBox="0 0 176 198" fill="none" xmlns="http://www.w3.org/2000/svg">
<path fill-rule="evenodd" clip-rule="evenodd" d="M131.257 38.7858C129.037 16.9846 110.615 0 88.2488 0C65.8919 0 47.4781 16.839 44.9435 38.5125L56.5558 39.3979C58.609 23.7445 71.9506 11.642 88.2043 11.642C104.449 11.642 117.909 23.9525 119.642 39.7842L131.257 38.7858V38.7858Z" fill="white"/>
<path fill-rule="evenodd" clip-rule="evenodd" d="M88.1061 45.7568C97.4156 41.1065 108.707 38.5689 119.039 37.6745L130.651 36.6613C143.371 35.5678 156.098 36.2393 168.833 36.2393H175.816V43.2221C175.816 74.2259 175.816 105.238 175.816 136.248V139.814C175.816 171.825 149.641 198 117.621 198H0.318756V36.2393H7.2986C20.046 36.2393 32.7279 35.4014 45.4723 36.3909L57.0816 37.2674C68.1115 38.0965 78.2084 40.7737 88.1061 45.7568V45.7568Z" fill="white"/>
<path fill-rule="evenodd" clip-rule="evenodd" d="M7.29865 43.2222V122.912V136.248V139.814V191.02H58.4961H66.5456H117.621C145.79 191.02 168.834 167.971 168.834 139.814V136.248C168.834 105.42 168.834 75.3461 168.834 43.2222C156.594 43.2222 143.669 42.922 131.257 43.6233L119.642 44.6247C108.276 46.0064 96.7768 48.6598 88.0646 53.6875C78.6601 48.2528 68.4028 45.5517 56.5557 44.2235L44.9435 43.341C32.2793 42.7527 19.2972 43.2222 7.29865 43.2222Z" fill="#FB9646"/>
<path fill-rule="evenodd" clip-rule="evenodd" d="M88.0646 191.02L118.218 190.574C130.532 190.574 141.74 186.233 150.47 179.019C161.711 169.73 168.834 155.663 168.834 139.814V136.248C168.834 105.42 168.834 75.3461 168.834 43.2222C156.594 43.2222 143.669 42.922 131.257 43.6233L119.642 44.6247C108.276 46.0064 96.7768 48.6598 88.0646 53.6875V191.02V191.02Z" fill="#FB9646"/>
<path fill-rule="evenodd" clip-rule="evenodd" d="M21.7813 191.02H58.4961H66.5456H117.621C130.101 191.02 141.565 186.495 150.467 179.016C140.07 154.846 116.037 137.933 88.0616 137.933C55.6465 137.933 28.5413 160.64 21.7813 191.02V191.02Z" fill="#FB9646"/>
<path fill-rule="evenodd" clip-rule="evenodd" d="M88.0646 191.02H117.808C130.288 191.02 141.568 186.498 150.47 179.019C140.186 155.123 115.642 138.313 88.0646 137.945V191.02Z" fill="#FB9646"/>
<path fill-rule="evenodd" clip-rule="evenodd" d="M106.954 144.746C101.894 150.098 96.8392 155.452 91.7818 160.81L88.0616 164.753L84.3473 160.81C79.287 155.461 74.2327 150.098 69.1753 144.746L66.5575 141.968L68.4711 138.664C72.5271 131.669 80.116 127.904 88.0616 127.904C96.0161 127.904 103.599 131.669 107.658 138.664L109.575 141.968L106.954 144.746V144.746Z" fill="#FB9646"/>
<path fill-rule="evenodd" clip-rule="evenodd" d="M103.228 141.237C98.1823 146.592 93.116 151.94 88.0616 157.301C83.0073 151.94 77.9499 146.592 72.8926 141.237C76.0868 135.731 82.0832 133.009 88.0616 133.021C94.0431 133.009 100.039 135.731 103.228 141.237Z" fill="white"/>
<path fill-rule="evenodd" clip-rule="evenodd" d="M103.228 141.237C98.1822 146.592 93.1159 151.94 88.0615 157.301V133.021C94.043 133.009 100.039 135.731 103.228 141.237Z" fill="white"/>
<path fill-rule="evenodd" clip-rule="evenodd" d="M50.1612 63.3654C72.8182 63.3654 91.1934 81.7525 91.1934 104.401C91.1934 127.058 72.8182 145.436 50.1612 145.436C27.5012 145.436 9.13196 127.058 9.13196 104.401C9.13196 81.7525 27.5012 63.3654 50.1612 63.3654V63.3654Z" fill="white"/>
<path fill-rule="evenodd" clip-rule="evenodd" d="M125.968 63.3654C148.631 63.3654 166.997 81.7525 166.997 104.401C166.997 127.058 148.631 145.436 125.968 145.436C103.308 145.436 84.9327 127.066 84.9327 104.401C84.9327 81.7525 103.308 63.3654 125.968 63.3654V63.3654Z" fill="white"/>
<path fill-rule="evenodd" clip-rule="evenodd" d="M50.1612 70.3482C68.9673 70.3482 84.2165 85.5975 84.2165 104.401C84.2165 123.201 68.9673 138.453 50.1612 138.453C31.3492 138.453 16.1088 123.201 16.1088 104.401C16.1088 85.5975 31.3492 70.3482 50.1612 70.3482V70.3482Z" fill="#FB9646"/>
<path fill-rule="evenodd" clip-rule="evenodd" d="M125.968 70.3482C144.771 70.3482 160.023 85.5975 160.023 104.401C160.023 123.201 144.771 138.453 125.968 138.453C107.162 138.453 91.9155 123.201 91.9155 104.401C91.9155 85.5975 107.162 70.3482 125.968 70.3482V70.3482Z" fill="#FB9646"/>
<path fill-rule="evenodd" clip-rule="evenodd" d="M50.1612 70.3482C65.6809 70.3482 78.7789 80.7362 82.8824 94.9366C78.7789 109.131 65.6809 119.522 50.1612 119.522C34.6356 119.522 21.5495 109.131 17.446 94.9366C21.5495 80.7362 34.6356 70.3482 50.1612 70.3482Z" fill="#FB9646"/>
<path fill-rule="evenodd" clip-rule="evenodd" d="M125.968 70.3482C141.485 70.3482 154.583 80.7362 158.68 94.9366C154.586 109.131 141.485 119.522 125.968 119.522C110.442 119.522 97.3502 109.131 93.2467 94.9366C97.3502 80.7362 110.442 70.3482 125.968 70.3482Z" fill="#FB9646"/>
<path fill-rule="evenodd" clip-rule="evenodd" d="M54.4401 83.2233C66.5843 83.2233 76.4375 93.0706 76.4375 105.203C76.4375 117.356 66.5843 127.2 54.4401 127.2C42.287 127.2 32.4427 117.356 32.4427 105.203C32.4427 101.156 33.5451 97.3642 35.4587 94.1016C37.0276 97.9853 40.8251 100.71 45.2793 100.71C51.127 100.71 55.8753 95.9796 55.8753 90.1289C55.8753 87.4932 54.9126 85.0923 53.3318 83.2471C53.6973 83.2233 54.0717 83.2233 54.4401 83.2233V83.2233Z" fill="white"/>
<path fill-rule="evenodd" clip-rule="evenodd" d="M121.68 83.2233C133.836 83.2233 143.683 93.0706 143.683 105.203C143.683 117.356 133.836 127.2 121.68 127.2C109.539 127.2 99.6917 117.356 99.6917 105.203C99.6917 101.156 100.788 97.3642 102.696 94.1016C104.274 97.9853 108.08 100.71 112.528 100.71C118.376 100.71 123.115 95.9796 123.115 90.1289C123.115 87.4932 122.164 85.0923 120.578 83.2471C120.949 83.2233 121.312 83.2233 121.68 83.2233V83.2233Z" fill="white"/>
</svg>
