<svg width="190" height="191" viewBox="0 0 190 191" fill="none" xmlns="http://www.w3.org/2000/svg">
<path fill-rule="evenodd" clip-rule="evenodd" d="M96.7202 0C45.334 0 3.67662 41.6545 3.67662 93.0436C3.67662 110.621 8.5542 127.061 17.0276 141.083L0.236206 191L51.7485 174.508C65.079 181.878 80.4069 186.081 96.7202 186.081C148.106 186.081 189.764 144.427 189.764 93.0436C189.764 41.6545 148.106 0 96.7202 0ZM96.7202 171.264C80.8322 171.264 66.0381 166.498 53.6843 158.326L23.624 167.952L33.3938 138.904C24.0287 126.008 18.4971 110.164 18.4971 93.0407C18.4971 49.908 53.5875 14.8175 96.7202 14.8175C139.853 14.8175 174.946 49.908 174.946 93.0407C174.946 136.173 139.853 171.264 96.7202 171.264Z" fill="#F4A061"/>
<path fill-rule="evenodd" clip-rule="evenodd" d="M74.8987 54.5568C73.3911 50.9257 72.2355 50.8025 69.9097 50.6911C69.1119 50.6529 68.2437 50.6148 67.2964 50.6148C64.2988 50.6148 61.1869 51.5006 59.3157 53.4158C57.0338 55.7505 51.332 61.2147 51.332 72.4363C51.332 83.658 59.5034 94.5013 60.6443 96.0235C61.7852 97.5428 76.5822 120.91 99.6063 130.448C117.577 137.892 122.912 137.229 127.012 136.335C132.978 135.03 140.469 130.639 142.369 125.315C144.27 119.986 144.27 115.422 143.701 114.475C143.129 113.522 141.61 112.953 139.328 111.809C137.046 110.668 125.833 105.151 123.742 104.391C121.651 103.632 119.718 103.863 118.111 106.087C115.89 109.16 113.755 112.316 111.989 114.188C110.602 115.657 108.37 115.862 106.449 115.047C103.924 113.971 96.82 111.495 88.106 103.726C81.3278 97.6836 76.7494 90.2162 75.4178 87.9314C74.0892 85.6524 75.3005 84.2886 76.3271 83.0479C77.4973 81.6313 78.5738 80.6135 79.7147 79.2849C80.8556 77.9533 81.4921 77.2435 82.2547 75.7184C83.0143 74.1991 82.501 72.6299 81.932 71.486C81.3601 70.3451 76.7934 59.1264 74.8987 54.5568Z" fill="#F4A061"/>
</svg>
